<?xml version="1.0" encoding="utf-8"?>
<!-- Generator: Adobe Illustrator 21.0.0, SVG Export Plug-In . SVG Version: 6.00 Build 0)  -->
<svg version="1.1" id="Layer_1" xmlns="http://www.w3.org/2000/svg" xmlns:xlink="http://www.w3.org/1999/xlink" x="0px" y="0px"
	 viewBox="0 0 200 200" style="enable-background:new 0 0 200 200;" xml:space="preserve">
<style type="text/css">
	.st0{fill:#2B3990;}
</style>
<g>
	<g>
		<path class="st0" d="M93.9,74.5l0,39.5c0,6-1.5,10.8-4.5,14.5c-3.3,4.1-8,6.2-14,6.2c-5.3,0-9.6-1-12.8-3c-3.2-2-4.7-4.4-4.7-7.4
			c0-2.5,0.8-4.4,2.5-5.8c1.4-1.2,3.2-1.9,5.4-1.9c2.1,0,3.9,0.5,5.4,1.8c1.5,1.2,2.3,2.8,2.3,4.8c0,1.6-0.7,3.5-2.2,5.8
			c-0.2,0.3-0.3,0.6-0.3,0.8c0,1.2,1,1.8,3.1,1.8c1,0,1.5-1.2,1.5-3.5l0-40.3c0-1.3-0.6-2.6-1.8-3.8c-1.2-1.1-2.7-1.7-4.4-1.7h-2.5
			v-3c5.3,0,9.8-0.4,13.6-1.1C83.9,77.7,88.3,76.4,93.9,74.5z M94.7,63.7c0,2.5-1.1,4.7-3.2,6.6c-2.1,1.8-4.6,2.7-7.5,2.7
			c-2.9,0-5.5-0.9-7.6-2.7c-2.1-1.8-3.1-3.9-3.1-6.5c0-2.5,1.1-4.7,3.2-6.6c2.1-1.8,4.6-2.7,7.5-2.7c2.9,0,5.5,0.9,7.6,2.8
			C93.6,59,94.6,61.2,94.7,63.7z"/>
		<path class="st0" d="M93.9,74.5l0,39.5c0,6-1.5,10.8-4.5,14.5c-3.3,4.1-8,6.2-14,6.2c-5.3,0-9.6-1-12.8-3c-3.2-2-4.7-4.4-4.7-7.4
			c0-2.5,0.8-4.4,2.5-5.8c1.4-1.2,3.2-1.9,5.4-1.9c2.1,0,3.9,0.5,5.4,1.8c1.5,1.2,2.3,2.8,2.3,4.8c0,1.6-0.7,3.5-2.2,5.8
			c-0.2,0.3-0.3,0.6-0.3,0.8c0,1.2,1,1.8,3.1,1.8c1,0,1.5-1.2,1.5-3.5l0-40.3c0-1.3-0.6-2.6-1.8-3.8c-1.2-1.1-2.7-1.7-4.4-1.7h-2.5
			v-3c5.3,0,9.8-0.4,13.6-1.1C83.9,77.7,88.3,76.4,93.9,74.5z M94.7,63.7c0,2.5-1.1,4.7-3.2,6.6c-2.1,1.8-4.6,2.7-7.5,2.7
			c-2.9,0-5.5-0.9-7.6-2.7c-2.1-1.8-3.1-3.9-3.1-6.5c0-2.5,1.1-4.7,3.2-6.6c2.1-1.8,4.6-2.7,7.5-2.7c2.9,0,5.5,0.9,7.6,2.8
			C93.6,59,94.6,61.2,94.7,63.7z"/>
		<path class="st0" d="M43.7,110.5c-1.9,2.8-4.1,4.2-6.8,4.2h-3.6c-2.1,0-3.7-0.5-4.8-1.6c-1.2-1-1.8-2.4-1.8-4.2l0-21.4h7.9
			c4.2,0,7.3,1.4,9.5,4.1c1.9,2.4,2.7,5.4,2.6,9.1C46.6,104.4,45.6,107.6,43.7,110.5z M52.8,86c3.5-1.8,6-3.4,7.3-4.7
			c2.1-2.1,3.2-4.8,3.2-8.1c0-5-2.2-8.9-6.7-11.5c-4.4-2.7-10.6-4-18.5-4l-37.5,0v3h3.3c3.4,0,5,2.5,5,7.5l0,40.8
			c0,3.7-2,5.6-6.1,5.6H0v2.9l40.8,0c16.3,0,24.6-5.8,24.8-17.3C65.8,94,61.5,89.3,52.8,86z M42.7,81.2c-1.9,2.3-4.6,3.4-8.1,3.4
			h-7.9l0-16.5c0-1.9,0.5-3.6,1.4-5c1.1-1.7,2.6-2.5,4.6-2.5h3.4c2.5,0,4.6,1.3,6.3,3.9c1.7,2.7,2.6,5.6,2.6,8.9
			C45,76.6,44.3,79.2,42.7,81.2z"/>
		<path class="st0" d="M43.7,110.5c-1.9,2.8-4.1,4.2-6.8,4.2h-3.6c-2.1,0-3.7-0.5-4.8-1.6c-1.2-1-1.8-2.4-1.8-4.2l0-21.4h7.9
			c4.2,0,7.3,1.4,9.5,4.1c1.9,2.4,2.7,5.4,2.6,9.1C46.6,104.4,45.6,107.6,43.7,110.5z M52.8,86c3.5-1.8,6-3.4,7.3-4.7
			c2.1-2.1,3.2-4.8,3.2-8.1c0-5-2.2-8.9-6.7-11.5c-4.4-2.7-10.6-4-18.5-4l-37.5,0v3h3.3c3.4,0,5,2.5,5,7.5l0,40.8
			c0,3.7-2,5.6-6.1,5.6H0v2.9l40.8,0c16.3,0,24.6-5.8,24.8-17.3C65.8,94,61.5,89.3,52.8,86z M42.7,81.2c-1.9,2.3-4.6,3.4-8.1,3.4
			h-7.9l0-16.5c0-1.9,0.5-3.6,1.4-5c1.1-1.7,2.6-2.5,4.6-2.5h3.4c2.5,0,4.6,1.3,6.3,3.9c1.7,2.7,2.6,5.6,2.6,8.9
			C45,76.6,44.3,79.2,42.7,81.2z"/>
		<path class="st0" d="M174.3,104.4l2.1,1.2c-6.8,8.3-13.5,12.5-20,12.5c-5.6,0-9.4-0.9-11.5-2.7c-2.4-2.2-3.7-6.3-3.7-12.4l0-29.6
			h-8l0-3c5.1,0,9-1.5,11.6-4.3c2.4-2.5,4.1-6.4,5.1-11.9l9.4,0l0,16.3l14.8,0v3.1l-14.8,0l0,34c0,3.5,1,5.2,3,5.2
			C164.6,112.4,168.5,109.7,174.3,104.4z"/>
		<path class="st0" d="M174.3,104.4l2.1,1.2c-6.8,8.3-13.5,12.5-20,12.5c-5.6,0-9.4-0.9-11.5-2.7c-2.4-2.2-3.7-6.3-3.7-12.4l0-29.6
			h-8l0-3c5.1,0,9-1.5,11.6-4.3c2.4-2.5,4.1-6.4,5.1-11.9l9.4,0l0,16.3l14.8,0v3.1l-14.8,0l0,34c0,3.5,1,5.2,3,5.2
			C164.6,112.4,168.5,109.7,174.3,104.4z"/>
		<path class="st0" d="M133.5,113.7v3l-36.2,0v-3c6,0,9-2.2,9-6.5l0-25.8c0-1.5-0.6-2.8-1.8-3.9c-1.2-1-2.7-1.6-4.5-1.6h-3.2V73
			c9,0,18.3-1.6,27.9-4.9l0,39.1C124.7,111.5,127.7,113.7,133.5,113.7z M125.4,57.3c0,2.5-1.1,4.7-3.2,6.6c-2.1,1.8-4.6,2.7-7.5,2.7
			c-2.9,0-5.5-0.9-7.6-2.8c-2.1-1.8-3.1-3.9-3.1-6.5c0-2.5,1.1-4.7,3.2-6.5c2.1-1.8,4.6-2.7,7.5-2.7c2.9,0,5.5,0.9,7.6,2.8
			C124.4,52.6,125.4,54.7,125.4,57.3z"/>
		<path class="st0" d="M133.5,113.7v3l-36.2,0v-3c6,0,9-2.2,9-6.5l0-25.8c0-1.5-0.6-2.8-1.8-3.9c-1.2-1-2.7-1.6-4.5-1.6h-3.2V73
			c9,0,18.3-1.6,27.9-4.9l0,39.1C124.7,111.5,127.7,113.7,133.5,113.7z M125.4,57.3c0,2.5-1.1,4.7-3.2,6.6c-2.1,1.8-4.6,2.7-7.5,2.7
			c-2.9,0-5.5-0.9-7.6-2.8c-2.1-1.8-3.1-3.9-3.1-6.5c0-2.5,1.1-4.7,3.2-6.5c2.1-1.8,4.6-2.7,7.5-2.7c2.9,0,5.5,0.9,7.6,2.8
			C124.4,52.6,125.4,54.7,125.4,57.3z"/>
		<path class="st0" d="M44.6,133.4c-14.4,18.5-23.9,35.8-20.2,45c1.1,2.7,3.8,5.9,10.4,5.9c21.1,0,71.8-34.7,115.5-78.9
			c27.5-27.9,54.8-62.8,48.9-77.3c-1.1-2.7-3.8-5.9-10.4-5.9c-11.7,0-39,17.2-62.7,34.3l-3.6-6.3c23.7-17.1,51-34.3,62.7-34.3
			c6.6,0,9.3,3.2,10.4,5.9c6,14.5-21.3,49.5-48.9,77.4c-43.7,44.2-94.4,78.9-115.5,78.9c-6.6,0-9.3-3.2-10.4-5.9
			c-3.8-9.1,5.7-26.4,20.1-45L44.6,133.4z"/>
		<path class="st0" d="M44.6,133.4c-14.4,18.5-23.9,35.8-20.2,45c1.1,2.7,3.8,5.9,10.4,5.9c21.1,0,71.8-34.7,115.5-78.9
			c27.5-27.9,54.8-62.8,48.9-77.3c-1.1-2.7-3.8-5.9-10.4-5.9c-11.7,0-39,17.2-62.7,34.3l-3.6-6.3c23.7-17.1,51-34.3,62.7-34.3
			c6.6,0,9.3,3.2,10.4,5.9c6,14.5-21.3,49.5-48.9,77.4c-43.7,44.2-94.4,78.9-115.5,78.9c-6.6,0-9.3-3.2-10.4-5.9
			c-3.8-9.1,5.7-26.4,20.1-45L44.6,133.4z"/>
		<ellipse class="st0" cx="114.6" cy="57.2" rx="10.9" ry="9.9"/>
		<ellipse class="st0" cx="114.6" cy="57.2" rx="10.9" ry="9.9"/>
	</g>
</g>
</svg>
